<svg xmlns="http://www.w3.org/2000/svg" width="701px" height="205px" version="1.1"><defs/><rect x="121" y="94" width="120" height="60" rx="9" ry="9" shape-rendering="crispEdges" fill="#d0d0d0" stroke="#d0d0d0"/><rect x="119" y="91" width="120" height="60" rx="9" ry="9" shape-rendering="crispEdges" fill="#ffffff" stroke="#000000"/><g text-anchor="middle" font-size="12px" font-family="Verdana" fill="#000000"><text x="179" y="107">Desktop w/</text><text x="179" y="122.6">Monitoring</text><text x="179" y="138.2">Software</text></g><path d="M 9 49 C 9 38.33 49 38.33 49 49 L 49 73 C 49 83.67 9 83.67 9 73 Z" fill="#ffffff" stroke="#000000" stroke-miterlimit="10"/><path d="M 9 49 C 9 57 49 57 49 49" fill="none" stroke="#000000" stroke-miterlimit="10"/><g text-anchor="middle" font-size="12px" font-family="Verdana" fill="#000000"><text x="29" y="18">Services</text></g><path d="M 9 109 C 9 98.33 49 98.33 49 109 L 49 133 C 49 143.67 9 143.67 9 133 Z" fill="#ffffff" stroke="#000000" stroke-miterlimit="10"/><path d="M 9 109 C 9 117 49 117 49 109" fill="none" stroke="#000000" stroke-miterlimit="10"/><path d="M 9 169 C 9 158.33 49 158.33 49 169 L 49 193 C 49 203.67 9 203.67 9 193 Z" fill="#ffffff" stroke="#000000" stroke-miterlimit="10"/><path d="M 9 169 C 9 177 49 177 49 169" fill="none" stroke="#000000" stroke-miterlimit="10"/><path d="M 117.96 96.58 L 110.16 97.23 L 113.09 94.63 L 112.76 90.74 Z" fill="#000000" stroke="#000000" stroke-miterlimit="10"/><path d="M 49 69 L 113.09 94.63" fill="none" stroke="#000000" stroke-miterlimit="10"/><path d="M 117.88 121 L 110.88 124.5 L 112.63 121 L 110.88 117.5 Z" fill="#000000" stroke="#000000" stroke-miterlimit="10"/><path d="M 49 121 L 112.63 121" shape-rendering="crispEdges" fill="none" stroke="#000000" stroke-miterlimit="10"/><path d="M 117.96 145.42 L 112.76 151.26 L 113.09 147.37 L 110.16 144.77 Z" fill="#000000" stroke="#000000" stroke-miterlimit="10"/><path d="M 49 173 L 113.09 147.37" fill="none" stroke="#000000" stroke-miterlimit="10"/><rect x="371" y="95.5" width="120" height="60" rx="9" ry="9" shape-rendering="crispEdges" fill="#d0d0d0" stroke="#d0d0d0"/><rect x="369" y="92.5" width="120" height="60" rx="9" ry="9" shape-rendering="crispEdges" fill="#ffffff" stroke="#000000"/><g text-anchor="middle" font-size="12px" font-family="Verdana" fill="#000000"><text x="429" y="117">Microcontroller</text><text x="429" y="132.6">(Arduino)</text></g><rect x="550" y="47" width="50" height="50" rx="7.5" ry="7.5" shape-rendering="crispEdges" fill="#ffffff" stroke="#000000"/><rect x="550" y="97" width="50" height="50" rx="7.5" ry="7.5" shape-rendering="crispEdges" fill="#7dff7d" stroke="#000000"/><rect x="550" y="147" width="50" height="50" rx="7.5" ry="7.5" shape-rendering="crispEdges" fill="#ff8080" stroke="#000000"/><rect x="600" y="147" width="50" height="50" rx="7.5" ry="7.5" shape-rendering="crispEdges" fill="#ffff99" stroke="#000000"/><rect x="650" y="147" width="50" height="50" rx="7.5" ry="7.5" shape-rendering="crispEdges" fill="#7dff7d" stroke="#000000"/><path d="M 367.88 122.13 L 360.86 125.59 L 362.63 122.1 L 360.9 118.59 Z" fill="#000000" stroke="#000000" stroke-miterlimit="10"/><path d="M 239 121.36 L 362.63 122.1" fill="none" stroke="#000000" stroke-miterlimit="10"/><path d="M 548.88 122.09 L 541.89 125.61 L 543.63 122.11 L 541.87 118.61 Z" fill="#000000" stroke="#000000" stroke-miterlimit="10"/><path d="M 489 122.29 L 543.63 122.11" fill="none" stroke="#000000" stroke-miterlimit="10"/><g text-anchor="middle" font-size="12px" font-family="Verdana" fill="#000000"><text x="304" y="97.5">Serial</text><text x="304" y="113.1">Communication</text></g><g font-size="12px" font-family="Verdana" fill="#000000"><text x="577" y="18">Health Display</text></g></svg>