<svg xmlns="http://www.w3.org/2000/svg" width="388px" height="158px" version="1.1"><defs><linearGradient id="1" x1="0%" y1="0%" x2="0%" y2="100%"><stop offset="0%" style="stop-color:#FF8080"/><stop offset="100%" style="stop-color:#FFFFFF"/></linearGradient></defs><rect x="1" y="41" width="30" height="30" rx="4.5" ry="4.5" shape-rendering="crispEdges" fill="#7dff7d" stroke="#000000"/><rect x="1" y="80" width="30" height="30" rx="4.5" ry="4.5" shape-rendering="crispEdges" fill="#ffff99" stroke="#000000"/><g font-size="12px" font-family="Verdana" fill="#000000"><text x="44" y="99">Average health</text></g><g font-size="12px" font-family="Verdana" fill="#000000"><text x="44" y="60">Good health</text></g><rect x="1" y="118" width="30" height="30" rx="4.5" ry="4.5" shape-rendering="crispEdges" fill="#ff8080" stroke="#000000"/><g font-size="12px" font-family="Verdana" fill="#000000"><text x="44" y="137">Bad health</text></g><path d="M 106 95 L 226 95" shape-rendering="crispEdges" fill="none" stroke="#000000" stroke-width="4" stroke-miterlimit="10" transform="rotate(90,166,95)"/><g font-size="12px" font-family="Verdana" fill="#000000"><text x="224" y="60">Not used (multi-segment)</text></g><rect x="181" y="41" width="30" height="30" rx="4.5" ry="4.5" shape-rendering="crispEdges" fill="#ffffff" stroke="#000000"/><g font-size="12px" font-family="Verdana" fill="#000000"><text x="224" y="99">Problematic health</text></g><rect x="181" y="80" width="30" height="30" rx="4.5" ry="4.5" shape-rendering="crispEdges" fill="#ff9933" stroke="#000000"/><rect x="181" y="118" width="30" height="30" rx="4.5" ry="4.5" shape-rendering="crispEdges" fill="url(#1)" stroke="#000000"/><g font-size="12px" font-family="Verdana" fill="#000000"><text x="224" y="137">Critical health (flashing)</text></g><g font-weight="bold" text-anchor="middle" font-size="12px" font-family="Verdana" fill="#000000"><text x="78.5" y="18">Native states</text></g><g font-weight="bold" text-anchor="middle" font-size="12px" font-family="Verdana" fill="#000000"><text x="286" y="18">Interpolated states</text></g></svg>